<?xml version="1.0" ?><svg xmlns="http://www.w3.org/2000/svg" xmlns:xlink="http://www.w3.org/1999/xlink" version="1.1" viewBox="0 0 512 512" style="enable-background:new 0 0 512 512;" xml:space="preserve"><g id="_x31_0_x2C__Healthcare_x2C__medical_x2C__insurance_x2C__love_x2C__caregiver_x2C__handgesture_x2C__life"><g><g><path style="fill:#DC5461;" d="M201.14,146.931h24.286v24.286c0,5.868,4.757,10.625,10.625,10.625h39.898     c5.868,0,10.625-4.757,10.625-10.625v-24.286h24.286c5.868,0,10.625-4.757,10.625-10.625V96.408     c0-5.868-4.757-10.625-10.625-10.625h-24.286V61.497c0-5.868-4.757-10.625-10.625-10.625h-39.898     c-5.868,0-10.625,4.757-10.625,10.625v24.286H201.14c-5.868,0-10.625,4.757-10.625,10.625v39.898     C190.515,142.173,195.273,146.931,201.14,146.931z M211.765,107.033h24.286c5.868,0,10.625-4.757,10.625-10.625V72.122h18.648     v24.286c0,5.868,4.757,10.625,10.625,10.625h24.286v18.648h-24.286c-5.868,0-10.625,4.757-10.625,10.625v24.286h-18.648v-24.286     c0-5.868-4.757-10.625-10.625-10.625h-24.286V107.033z"/><path style="fill:#283954;" d="M371.357,116.357C371.357,52.749,319.608,1,256,1S140.643,52.749,140.643,116.357     S192.392,231.714,256,231.714S371.357,179.965,371.357,116.357z M256,210.464c-51.89,0-94.107-42.217-94.107-94.107     S204.11,22.25,256,22.25s94.107,42.217,94.107,94.107S307.89,210.464,256,210.464z"/><path style="fill:#283954;" d="M133.306,206.046c-7.738-9.871-19.377-15.531-31.931-15.531c-6.727,0-13.378,1.71-19.278,4.896     V82.052c0-22.177-17.759-40.633-39.586-41.143C19.728,40.322,1,58.713,1,81.446v179.542c0,8.716,2.88,17.356,8.11,24.329     l47.878,63.837c2.488,3.318,3.859,7.43,3.859,11.579v59.847c0,5.867,4.757,10.625,10.625,10.625     c5.868,0,10.625-4.758,10.625-10.625v-59.847c0-8.717-2.879-17.357-8.109-24.329L26.11,272.566     c-2.489-3.319-3.86-7.431-3.86-11.579V81.446c0-10.621,8.674-19.518,19.764-19.293c10.384,0.243,18.832,9.169,18.832,19.899     c0,0.564,0,150.088,0,149.021c-0.008,9.01,3.058,17.89,8.636,25.009l40.262,51.357c3.62,4.616,10.299,5.426,14.918,1.806     c4.617-3.62,5.427-10.299,1.806-14.918l-40.261-51.355c-2.697-3.441-4.118-7.554-4.112-11.897     c0.013-10.77,8.721-19.311,19.278-19.311c5.982,0,11.526,2.695,15.208,7.392l79.795,101.788c2.651,3.382,4.111,7.61,4.111,11.905     v87.728c0,5.867,4.757,10.625,10.625,10.625c5.868,0,10.625-4.758,10.625-10.625v-87.728c0-9.027-3.067-17.911-8.637-25.016     L133.306,206.046z"/><path style="fill:#283954;" d="M338.746,274.211c-4.618-3.62-11.296-2.813-14.917,1.808l-24.943,31.82     c-5.567,7.115-8.632,15.998-8.632,25.012v87.731c0,5.868,4.758,10.625,10.625,10.625c5.868,0,10.625-4.757,10.625-10.625v-87.731     c0-4.292,1.463-8.525,4.112-11.912l24.937-31.812C344.174,284.509,343.365,277.831,338.746,274.211z"/><path style="fill:#283954;" d="M469.49,40.909c-21.828,0.509-39.586,18.966-39.586,41.143v113.362     c-17.171-9.27-38.807-5.187-51.205,10.627l-28.655,36.539c-3.621,4.617-2.813,11.296,1.805,14.918     c4.617,3.62,11.295,2.814,14.917-1.805l28.656-36.54c6.606-8.426,18.729-9.821,27.095-3.273c8.38,6.57,9.855,18.691,3.272,27.094     l-40.258,51.351c-3.62,4.618-2.812,11.296,1.806,14.918c4.657,3.649,11.327,2.772,14.918-1.807l40.26-51.354     c5.65-7.212,8.64-15.854,8.64-25.019V82.052c0-10.73,8.448-19.656,18.832-19.899c11.049-0.225,19.764,8.631,19.764,19.293     v179.542c0,4.147-1.371,8.259-3.86,11.579l-47.878,63.837c-5.229,6.972-8.109,15.612-8.109,24.329v59.847     c0,5.867,4.757,10.625,10.625,10.625c5.868,0,10.625-4.758,10.625-10.625v-59.847c0-4.148,1.371-8.26,3.859-11.579l47.878-63.837     c5.229-6.973,8.11-15.613,8.11-24.329V81.446C511,58.727,492.313,40.341,469.49,40.909z"/><path style="fill:#DC5461;" d="M231.063,409.957H51.522c-5.868,0-10.625,4.757-10.625,10.625v79.793     c0,5.868,4.757,10.625,10.625,10.625h40.141c5.868,0,10.625-4.757,10.625-10.625s-4.757-10.625-10.625-10.625H62.147v-58.543     h158.292v58.543h-86.275c-5.868,0-10.625,4.757-10.625,10.625S128.296,511,134.163,511h96.9c5.868,0,10.625-4.757,10.625-10.625     v-79.793C241.688,414.714,236.931,409.957,231.063,409.957z"/><path style="fill:#DC5461;" d="M460.477,409.954H280.937c-5.868,0-10.625,4.757-10.625,10.625v79.796     c0,5.868,4.757,10.625,10.625,10.625h179.541c5.868,0,10.625-4.757,10.625-10.625v-79.796     C471.102,414.711,466.345,409.954,460.477,409.954z M449.852,489.75H291.562v-58.546h158.291V489.75z"/></g></g></g><g id="Layer_1"/></svg>