<?xml version="1.0" ?><svg viewBox="0 0 64 64" xmlns="http://www.w3.org/2000/svg"><g id="coronavirus-covid19-virus-insurance-protect"><path d="M32,3,8,11V26.75a35.991,35.991,0,0,0,19.9,32.2L32,61l4.1-2.05A35.991,35.991,0,0,0,56,26.75V11Z" style="fill:#d80027"/><path d="M53,10V26.75a35.991,35.991,0,0,1-19.9,32.2l-2.6,1.3L32,61l4.1-2.05A35.991,35.991,0,0,0,56,26.75V11Z" style="fill:#c20023"/><path d="M32,9.32l-18,6V26.75A29.818,29.818,0,0,0,30.58,53.58l1.42.71,1.42-.71A29.818,29.818,0,0,0,50,26.75V15.32Z" style="fill:#ffcd00"/><path d="M47,14.32V26.75A29.814,29.814,0,0,1,30.5,53.536l.08.044,1.42.71,1.42-.71A29.818,29.818,0,0,0,50,26.75V15.32Z" style="fill:#ebbf00"/><circle cx="53" cy="46" r="1" style="fill:#0b7"/><path d="M51.657,41.757a1,1,0,1,0-1.414,0A1,1,0,0,0,51.657,41.757Z" style="fill:#0b7"/><circle cx="46" cy="39" r="1" style="fill:#0b7"/><path d="M41.757,40.343a1,1,0,1,0,0,1.414A1,1,0,0,0,41.757,40.343Z" style="fill:#0b7"/><circle cx="39" cy="46" r="1" style="fill:#0b7"/><path d="M40.343,50.243a1,1,0,1,0,1.414,0A1,1,0,0,0,40.343,50.243Z" style="fill:#0b7"/><circle cx="46" cy="53" r="1" style="fill:#0b7"/><path d="M50.243,51.657a1,1,0,1,0,0-1.414A1,1,0,0,0,50.243,51.657Z" style="fill:#0b7"/><polygon points="22.929 26.272 20.101 29.1 30 39 46.142 22.858 43.314 20.029 30 33.343 22.929 26.272" style="fill:#009444"/><circle cx="46" cy="46" r="11" style="fill:#00665a"/><path d="M46,35a11.07,11.07,0,0,0-2,.19,10.992,10.992,0,0,1,0,21.62A11,11,0,1,0,46,35Z" style="fill:#005c51"/><circle cx="46" cy="46" r="3" style="fill:#ed1c24"/><path d="M53,44a1.993,1.993,0,0,0-1.722,1h-1.42a3.915,3.915,0,0,0-.425-1.019l1.006-1.006a2.016,2.016,0,0,0,.511.074,2,2,0,1,0-1.925-1.488l-1.006,1.006A3.915,3.915,0,0,0,47,42.142v-1.42a2,2,0,1,0-2,0v1.42a3.915,3.915,0,0,0-1.019.425l-1.006-1.006a1.993,1.993,0,1,0-1.925,1.488,2.016,2.016,0,0,0,.511-.074l1.006,1.006A3.915,3.915,0,0,0,42.142,45h-1.42a2,2,0,1,0,0,2h1.42a3.915,3.915,0,0,0,.425,1.019l-1.006,1.006a2,2,0,1,0,1.414,1.414l1.006-1.006A3.915,3.915,0,0,0,45,49.858v1.42a2,2,0,1,0,2,0v-1.42a3.915,3.915,0,0,0,1.019-.425l1.006,1.006a2,2,0,1,0,1.414-1.414l-1.006-1.006A3.915,3.915,0,0,0,49.858,47h1.42A2,2,0,1,0,53,44Zm-7,4a2,2,0,1,1,2-2A2,2,0,0,1,46,48Z" style="fill:#231f20"/><path d="M55.155,38.26A36.74,36.74,0,0,0,57,26.75V11a1,1,0,0,0-.684-.949l-24-8a1,1,0,0,0-.632,0l-24,8A1,1,0,0,0,7,11V26.75a36.8,36.8,0,0,0,20.453,33.1l4.1,2.05a1,1,0,0,0,.894,0l4.1-2.05a36.918,36.918,0,0,0,4.714-2.824A11.989,11.989,0,0,0,55.155,38.26Zm-19.5,19.8L32,59.882l-3.653-1.826A34.812,34.812,0,0,1,9,26.75V11.721L32,4.054l23,7.667V26.75a34.787,34.787,0,0,1-1.443,9.94,11.991,11.991,0,0,0-3.595-2A31.344,31.344,0,0,0,51,26.75V15.32a1,1,0,0,0-.684-.949l-18-6a1,1,0,0,0-.632,0l-18,6A1,1,0,0,0,13,15.32V26.75A30.817,30.817,0,0,0,30.133,54.475l1.42.71a1,1,0,0,0,.894,0l1.424-.712c.852-.43,1.669-.9,2.464-1.39a12.09,12.09,0,0,0,2.937,2.847A34.9,34.9,0,0,1,35.653,58.056ZM49,26.75a29.325,29.325,0,0,1-.973,7.435,11.97,11.97,0,0,0-12.738,17.2c-.747.459-1.516.9-2.316,1.306L32,53.172l-.973-.486A28.827,28.827,0,0,1,15,26.75V16.041l17-5.667,17,5.667ZM46,56A10,10,0,1,1,56,46,10.011,10.011,0,0,1,46,56Z" style="fill:#231f20"/><path d="M23.636,25.565a1.029,1.029,0,0,0-1.414,0l-2.828,2.829a1,1,0,0,0,0,1.414l9.9,9.9a1,1,0,0,0,1.414,0L46.849,23.565a1,1,0,0,0,0-1.414l-2.828-2.829a1.031,1.031,0,0,0-1.415,0L30,31.929Zm19.677-4.122,1.415,1.415L30,37.586,21.515,29.1l1.414-1.415,6.364,6.364a1.029,1.029,0,0,0,1.414,0Z" style="fill:#231f20"/></g></svg>