<?xml version="1.0" ?><svg id="Icons" viewBox="0 0 24 24" xmlns="http://www.w3.org/2000/svg"><defs><style>.cls-1{fill:#232323;}</style></defs><path class="cls-1" d="M20,1H4A3,3,0,0,0,1,4V20a3,3,0,0,0,3,3H20a3,3,0,0,0,3-3V4A3,3,0,0,0,20,1ZM8,20a1,1,0,0,1-1-1,2,2,0,0,0-2-2,1,1,0,0,1,0-2,4,4,0,0,1,4,4A1,1,0,0,1,8,20Zm4,0a1,1,0,0,1-1-1,6.006,6.006,0,0,0-6-6,1,1,0,0,1,0-2,8.009,8.009,0,0,1,8,8A1,1,0,0,1,12,20Zm4,0a1,1,0,0,1-1-1A10.011,10.011,0,0,0,5,9,1,1,0,0,1,5,7,12.013,12.013,0,0,1,17,19,1,1,0,0,1,16,20Z"/></svg>