<svg width="125" height="125" viewBox="0 0 125 125" fill="none" xmlns="http://www.w3.org/2000/svg">
<path d="M89.3677 48.7427C65.2589 43.457 85.022 10.022 51.9898 12.793C18.9576 15.564 -12.3656 91.626 46.2769 109.436C104.92 127.246 135.144 58.7768 89.3677 48.7427Z" fill="#464BD8"/>
<path d="M33.7891 54.9072C33.7891 59.4238 37.4512 63.0737 41.9556 63.0737H80.896C82.0679 63.0737 83.02 64.0259 83.02 65.1978V93.8477C83.02 95.0195 82.0679 95.9717 80.896 95.9717H47.522C39.9292 95.9717 33.7891 89.8193 33.7891 82.2388V53.9917" fill="white"/>
<path d="M80.9082 97.1069H47.522C39.3188 97.1069 32.6538 90.4419 32.6538 82.2388V53.9917C32.6538 53.3691 33.1543 52.8564 33.7891 52.8564C34.4238 52.8564 34.9243 53.3569 34.9243 53.9917V54.9194C34.9243 58.8013 38.0859 61.9629 41.9678 61.9629H80.9082C82.7026 61.9629 84.1553 63.4277 84.1553 65.21V93.8599C84.1553 95.6421 82.7026 97.1069 80.9082 97.1069ZM34.9243 60.9863V82.2388C34.9243 89.1968 40.5762 94.8486 47.5342 94.8486H80.9082C81.4575 94.8486 81.897 94.4092 81.897 93.8599V65.21C81.897 64.6606 81.4575 64.2212 80.9082 64.2212H41.9678C40.6302 64.2201 39.3086 63.9306 38.0931 63.3723C36.8775 62.8141 35.7967 62.0002 34.9243 60.9863Z" fill="#151B28"/>
<path d="M80.9082 97.1069H47.522C39.3188 97.1069 32.6538 90.4419 32.6538 82.2388V54.5776C32.6538 49.6216 36.6943 45.5811 41.6504 45.5811H80.6763C81.2988 45.5811 81.8115 46.0815 81.8115 46.7163C81.8115 47.3511 81.311 47.8516 80.6763 47.8516H41.6504C37.9395 47.8516 34.9121 50.8789 34.9121 54.5898V54.9194C34.9121 58.8013 38.0737 61.9629 41.9556 61.9629H80.896C82.6904 61.9629 84.1431 63.4277 84.1431 65.21V93.8599C84.1447 94.2857 84.0622 94.7077 83.9003 95.1015C83.7385 95.4954 83.5005 95.8535 83.1999 96.1552C82.8994 96.4568 82.5422 96.6962 82.149 96.8595C81.7557 97.0229 81.334 97.1069 80.9082 97.1069ZM34.9243 60.9863V82.2388C34.9243 89.1968 40.5762 94.8486 47.5342 94.8486H80.9082C81.4575 94.8486 81.897 94.4092 81.897 93.8599V65.21C81.897 64.6606 81.4575 64.2212 80.9082 64.2212H41.9678C40.6302 64.2201 39.3086 63.9306 38.0931 63.3723C36.8775 62.8141 35.7967 62.0002 34.9243 60.9863Z" fill="#151B28"/>
<path d="M71.936 63.1104H46.9604V39.0991C46.9604 37.854 47.9736 36.853 49.2065 36.853H69.6777C70.9228 36.853 71.9238 37.8662 71.9238 39.0991V63.1104H71.936Z" fill="#2AEFC8"/>
<path d="M71.936 64.1479H46.9604C46.6853 64.1479 46.4213 64.0386 46.2268 63.844C46.0322 63.6495 45.9229 63.3855 45.9229 63.1104V39.0991C45.9229 37.2925 47.3999 35.8154 49.2065 35.8154H69.6777C71.4844 35.8154 72.9614 37.2925 72.9614 39.0991V63.1104C72.9736 63.6841 72.5098 64.1479 71.936 64.1479ZM47.998 62.0728H70.9106V39.0991C70.9106 38.4277 70.3613 37.8784 69.6899 37.8784H49.2065C48.5352 37.8784 47.9858 38.4277 47.9858 39.0991V62.0728H47.998Z" fill="#151B28"/>
<path d="M51.5381 37.561H57.019V62.3779H51.5381V37.561Z" fill="white"/>
<path d="M57.019 62.9517H51.5381C51.3827 62.9517 51.2336 62.8899 51.1238 62.78C51.0139 62.6702 50.9521 62.5211 50.9521 62.3657V37.561C50.9521 37.2437 51.2085 36.9751 51.5381 36.9751H57.019C57.3364 36.9751 57.605 37.2314 57.605 37.561V62.3779C57.605 62.6953 57.3364 62.9517 57.019 62.9517ZM52.124 61.792H56.4453V38.1348H52.124V61.792ZM61.2305 40.0635H63.1226V45.2515H61.2305V40.0635ZM61.2305 47.1313H63.1226V59.8877H61.2305V47.1313ZM66.1865 40.0635H68.0786V59.8877H66.1865V40.0635Z" fill="#151B28"/>
<path d="M84.7289 71.875H63.6596C60.5224 71.875 57.727 74.1699 57.434 77.2827C57.0922 80.8594 59.8998 83.8745 63.4032 83.8745H84.7289C85.4369 83.8745 85.9984 83.3008 85.9984 82.605V73.1445C85.9984 72.4487 85.4369 71.875 84.7289 71.875Z" fill="#464BD8"/>
<path d="M84.729 84.9731H63.4033C61.4135 84.9731 59.497 84.1309 58.1543 82.6538C57.4882 81.9188 56.9834 81.0525 56.6722 80.1106C56.3611 79.1688 56.2505 78.1722 56.3476 77.1851C56.6894 73.5962 59.8999 70.7886 63.6718 70.7886H84.7412C86.0473 70.7886 87.1093 71.8506 87.1093 73.1567V82.6172C87.0971 83.9111 86.0351 84.9731 84.729 84.9731ZM63.6596 72.9736C61.0107 72.9736 58.7524 74.9145 58.5205 77.3926C58.4491 78.0765 58.5243 78.7677 58.7411 79.4202C58.9579 80.0728 59.3113 80.6716 59.7778 81.1768C60.2385 81.6838 60.8001 82.0891 61.4265 82.3666C62.0529 82.644 62.7304 82.7876 63.4155 82.7881H84.7412C84.8388 82.7881 84.9243 82.7026 84.9243 82.605V73.1445C84.9243 73.0469 84.8388 72.9614 84.7412 72.9614L63.6596 72.9736Z" fill="#151B28"/>
<path d="M61.0962 77.8809C61.0962 78.619 61.3894 79.3269 61.9114 79.8489C62.4333 80.3708 63.1412 80.6641 63.8794 80.6641C64.6175 80.6641 65.3255 80.3708 65.8474 79.8489C66.3694 79.3269 66.6626 78.619 66.6626 77.8809C66.6626 77.1427 66.3694 76.4348 65.8474 75.9128C65.3255 75.3909 64.6175 75.0977 63.8794 75.0977C63.1412 75.0977 62.4333 75.3909 61.9114 75.9128C61.3894 76.4348 61.0962 77.1427 61.0962 77.8809Z" fill="white"/>
</svg>
